<svg xmlns="http://www.w3.org/2000/svg" viewBox="0 0 360 280" fill="none" role="img" aria-labelledby="uiTitle">
  <title id="uiTitle">Point2Picture communication board interface</title>
  <rect width="360" height="280" rx="20" fill="#FFF9E6"/>
  <rect x="16" y="16" width="328" height="44" rx="10" fill="#FFF3D6"/>
  <rect x="28" y="28" width="80" height="20" rx="5" fill="#454FA8" opacity="0.25"/>
  <circle cx="320" cy="38" r="8" fill="#FF8FAB" opacity="0.3"/>
  <rect x="16" y="72" width="100" height="88" rx="12" fill="#FFF" stroke="#F5E6C4"/>
  <rect x="28" y="84" width="76" height="52" rx="8" fill="#E0FAEC"/>
  <circle cx="66" cy="108" r="14" fill="#6DD4A0" opacity="0.45"/>
  <rect x="28" y="144" width="56" height="8" rx="3" fill="#3D3050" opacity="0.15"/>
  <rect x="124" y="72" width="100" height="88" rx="12" fill="#FFF" stroke="#F5E6C4"/>
  <rect x="136" y="84" width="76" height="52" rx="8" fill="#FFE8F0"/>
  <rect x="154" y="98" width="40" height="28" rx="6" fill="#FF8FAB" opacity="0.35"/>
  <rect x="136" y="144" width="48" height="8" rx="3" fill="#3D3050" opacity="0.15"/>
  <rect x="232" y="72" width="100" height="88" rx="12" fill="#FFF" stroke="#F5E6C4"/>
  <rect x="244" y="84" width="76" height="52" rx="8" fill="#E3F2FF"/>
  <path d="M272 100v24M260 112h24" stroke="#6EB5FF" stroke-width="3" stroke-linecap="round"/>
  <rect x="244" y="144" width="52" height="8" rx="3" fill="#3D3050" opacity="0.15"/>
  <rect x="16" y="172" width="100" height="88" rx="12" fill="#FFF" stroke="#F5E6C4"/>
  <rect x="28" y="184" width="76" height="52" rx="8" fill="#FFF3D6"/>
  <rect x="44" y="200" width="44" height="20" rx="4" fill="#F5E6C4" opacity="0.6"/>
  <rect x="124" y="172" width="100" height="88" rx="12" fill="#FFF" stroke="#F5E6C4"/>
  <rect x="136" y="184" width="76" height="52" rx="8" fill="#E8EBF6"/>
  <path d="M160 208h28M174 194v28" stroke="#454FA8" stroke-width="2.5" stroke-linecap="round"/>
  <rect x="232" y="172" width="112" height="88" rx="12" fill="#454FA8" opacity="0.12" stroke="#454FA8" stroke-width="1" stroke-dasharray="4 4"/>
  <rect x="252" y="200" width="72" height="32" rx="8" fill="#454FA8" opacity="0.2"/>
  <text x="288" y="222" text-anchor="middle" fill="#454FA8" font-family="system-ui,sans-serif" font-size="11" font-weight="500">+ Add</text>
</svg>
